<!DOCTYPE svg PUBLIC "-//W3C//DTD SVG 1.1//EN" "http://www.w3.org/Graphics/SVG/1.1/DTD/svg11.dtd">
<!-- Uploaded to: SVG Repo, www.svgrepo.com, Transformed by: SVG Repo Mixer Tools -->
<svg width="800px" height="800px" viewBox="0 0 48 48" id="Layer_1" version="1.1" xml:space="preserve" xmlns="http://www.w3.org/2000/svg" xmlns:xlink="http://www.w3.org/1999/xlink" fill="#000000">
<g id="SVGRepo_bgCarrier" stroke-width="0"/>
<g id="SVGRepo_tracerCarrier" stroke-linecap="round" stroke-linejoin="round"/>
<g id="SVGRepo_iconCarrier">
<style type="text/css"> .st0{fill:#a3b3ce;} </style>
<path class="st0" d="M19.663,10.836c-7.258,0-13.163,5.905-13.163,13.18c0,0.542,0.245,1.053,0.671,1.399 c0.44,0.359,1.011,0.502,1.567,0.388l4.292-0.871c1.655-0.335,3.305,0.141,4.528,1.305c1.222,1.162,1.778,2.785,1.527,4.45 l-0.814,5.376c-0.041,0.269,0.036,0.542,0.209,0.752c0.169,0.204,0.417,0.327,0.76,0.34c0.164,0.006,0.327,0.009,0.489,0.009 c5.639,0,10.688-3.552,12.386-8.774c1.377-4.237,0.722-8.655-1.796-12.122C27.848,12.867,23.865,10.836,19.663,10.836z M31.164,28.081c-1.577,4.851-6.301,8.136-11.577,8.136c-0.109,0-0.219-0.002-0.328-0.004l0.814-5.376 c0.301-1.993-0.365-3.934-1.826-5.324c-1.156-1.1-2.631-1.686-4.176-1.686c-0.41,0-0.825,0.042-1.24,0.125l-4.292,0.871 c-0.262,0.052-0.529-0.014-0.735-0.182C7.608,24.481,7.5,24.259,7.5,23.999c0-6.707,5.457-12.163,12.163-12.163 c3.882,0,7.563,1.876,9.847,5.02C31.838,20.06,32.441,24.151,31.164,28.081z"/>
<path class="st0" d="M15.794,14.089c-2.07,0-3.754,1.684-3.754,3.754s1.684,3.753,3.754,3.753s3.753-1.684,3.753-3.753 S17.864,14.089,15.794,14.089z M15.794,20.597c-1.519,0-2.754-1.235-2.754-2.753c0-1.519,1.235-2.754,2.754-2.754 c1.518,0,2.753,1.235,2.753,2.754C18.547,19.361,17.312,20.597,15.794,20.597z"/>
<path class="st0" d="M23.796,21.597c1.544,0,2.801-1.256,2.801-2.8c0-1.544-1.256-2.801-2.801-2.801s-2.801,1.256-2.801,2.801 C20.995,20.34,22.251,21.597,23.796,21.597z M23.796,16.996c0.993,0,1.801,0.808,1.801,1.801c0,0.993-0.808,1.8-1.801,1.8 s-1.801-0.808-1.801-1.8C21.995,17.803,22.803,16.996,23.796,16.996z"/>
<path class="st0" d="M24.82,25.122c0,1.544,1.256,2.801,2.8,2.801c1.544,0,2.801-1.257,2.801-2.801s-1.256-2.8-2.801-2.8 C26.076,22.322,24.82,23.578,24.82,25.122z M29.421,25.122c0,0.993-0.808,1.801-1.801,1.801c-0.993,0-1.8-0.808-1.8-1.801 c0-0.993,0.808-1.8,1.8-1.8C28.613,23.322,29.421,24.129,29.421,25.122z"/>
<path class="st0" d="M23.796,28.648c-1.314,0-2.383,1.069-2.383,2.383c0,1.314,1.069,2.384,2.383,2.384 c1.314,0,2.384-1.069,2.384-2.384C26.18,29.718,25.11,28.648,23.796,28.648z M23.796,32.415c-0.763,0-1.383-0.621-1.383-1.384 s0.621-1.383,1.383-1.383c0.763,0,1.384,0.62,1.384,1.383S24.559,32.415,23.796,32.415z"/>
<path class="st0" d="M40.244,8.941c0-1.021-0.83-1.851-1.851-1.851s-1.851,0.83-1.851,1.851v19.422 c-0.814,1.331-1.256,2.852-1.256,4.427v0.454c0,1.443,0.348,2.883,1.005,4.164l1.657,3.229c0.085,0.167,0.257,0.271,0.445,0.271 s0.359-0.104,0.445-0.271l1.657-3.229c0.657-1.281,1.005-2.721,1.005-4.164V32.79c0-1.575-0.442-3.096-1.256-4.427V8.941z M37.543,8.941c0-0.469,0.381-0.851,0.851-0.851s0.851,0.381,0.851,0.851v18.99h-1.701V8.941z M40.5,33.244 c0,1.285-0.309,2.567-0.895,3.707l-1.212,2.362l-1.212-2.362c-0.585-1.14-0.895-2.422-0.895-3.707V32.79 c0-1.369,0.367-2.697,1.064-3.858h2.084c0.697,1.161,1.064,2.489,1.064,3.858V33.244z"/>
</g>
</svg>