<!DOCTYPE svg PUBLIC "-//W3C//DTD SVG 1.1//EN" "http://www.w3.org/Graphics/SVG/1.1/DTD/svg11.dtd">
<!-- Uploaded to: SVG Repo, www.svgrepo.com, Transformed by: SVG Repo Mixer Tools -->
<svg width="800px" height="800px" viewBox="0 0 48 48" id="Layer_1" version="1.1" xml:space="preserve" xmlns="http://www.w3.org/2000/svg" xmlns:xlink="http://www.w3.org/1999/xlink" fill="#000000">
<g id="SVGRepo_bgCarrier" stroke-width="0"/>
<g id="SVGRepo_tracerCarrier" stroke-linecap="round" stroke-linejoin="round"/>
<g id="SVGRepo_iconCarrier">
<style type="text/css"> .st0{fill:#a3b3ce;} </style>
<path class="st0" d="M35.833,11.679l0.292-1.984c0.117-0.766-0.106-1.543-0.612-2.132C35.003,6.97,34.262,6.63,33.48,6.63H14.52 c-0.782,0-1.523,0.34-2.032,0.933c-0.506,0.589-0.729,1.367-0.612,2.13l0.3,2.044c-1.211,0.355-2.327,0.998-3.239,1.91 C7.475,15.108,6.67,17.056,6.67,19.13c0,4.273,3.477,7.75,7.75,7.75h0.914c1.356,2.123,3.479,3.688,5.916,4.365V35.5h-0.5 c-1.587,0-2.895,1.168-3.137,2.688h-0.969c-0.851,0-1.543,0.692-1.543,1.544V41c0,0.276,0.224,0.5,0.5,0.5h16.8 c0.276,0,0.5-0.224,0.5-0.5v-1.269c0-0.852-0.692-1.544-1.543-1.544h-0.969c-0.242-1.519-1.55-2.688-3.137-2.688h-0.5v-4.255 c2.438-0.677,4.562-2.243,5.916-4.365h1.084c2.063,0,4.01-0.805,5.485-2.268c1.46-1.472,2.265-3.418,2.265-5.482 C41.5,15.653,39.142,12.596,35.833,11.679z M7.67,19.13c0-1.807,0.701-3.503,1.974-4.776c0.759-0.76,1.68-1.303,2.679-1.619 l1.482,10.087c0.156,1.081,0.481,2.105,0.955,3.059h-0.34C10.698,25.88,7.67,22.852,7.67,19.13z M31.9,39.731V40.5H16.1v-0.769 c0-0.3,0.244-0.544,0.543-0.544h1.419h11.875h1.419C31.656,39.188,31.9,39.432,31.9,39.731z M29.38,38.188H18.62 c0.227-0.966,1.096-1.688,2.13-1.688h1h4.5h1C28.284,36.5,29.153,37.222,29.38,38.188z M22.25,35.5v-4.037 c0.581,0.099,1.165,0.166,1.75,0.166c0.584,0,1.169-0.067,1.75-0.166V35.5H22.25z M26.137,30.383c-1.407,0.327-2.868,0.327-4.272,0 c-2.432-0.573-4.559-2.126-5.838-4.264c-0.64-1.046-1.054-2.204-1.232-3.442l-1.93-13.133c-0.073-0.478,0.066-0.962,0.382-1.331 C13.565,7.843,14.03,7.63,14.52,7.63h18.96c0.49,0,0.955,0.213,1.273,0.584c0.316,0.368,0.455,0.853,0.382,1.331 c0,0.001,0,0.001,0,0.002l-0.352,2.394c0,0.002-0.002,0.004-0.003,0.006c-0.001,0.004,0.001,0.008,0,0.013l-1.576,10.719 c-0.178,1.237-0.593,2.395-1.234,3.444C30.694,28.257,28.567,29.81,26.137,30.383z M38.528,23.905 c-1.283,1.274-2.98,1.975-4.778,1.975h-0.51c0.475-0.954,0.799-1.978,0.955-3.057l1.488-10.126c2.815,0.84,4.817,3.449,4.817,6.433 C40.5,20.928,39.799,22.625,38.528,23.905z"/>
<path class="st0" d="M29.605,15.762h-3.919l-1.211-3.727c-0.134-0.412-0.817-0.412-0.951,0l-1.211,3.727h-3.919 c-0.217,0-0.409,0.14-0.476,0.346s0.006,0.432,0.182,0.559l3.17,2.303l-1.211,3.728c-0.067,0.206,0.006,0.432,0.182,0.559 c0.176,0.128,0.412,0.128,0.588,0L24,20.953l3.17,2.303c0.088,0.064,0.191,0.096,0.294,0.096s0.206-0.032,0.294-0.096 c0.175-0.127,0.249-0.353,0.182-0.559l-1.211-3.728l3.17-2.303c0.175-0.127,0.249-0.353,0.182-0.559S29.822,15.762,29.605,15.762z M25.847,18.375c-0.175,0.127-0.249,0.353-0.182,0.559l0.848,2.609l-2.219-1.612c-0.088-0.064-0.191-0.096-0.294-0.096 s-0.206,0.032-0.294,0.096l-2.219,1.612l0.848-2.609c0.067-0.206-0.006-0.432-0.182-0.559l-2.219-1.612h2.743 c0.217,0,0.409-0.14,0.476-0.346L24,13.808l0.848,2.609c0.067,0.206,0.259,0.346,0.476,0.346h2.743L25.847,18.375z"/>
</g>
</svg>